<?xml version="1.0" standalone="no"?>
<!DOCTYPE svg PUBLIC "-//W3C//DTD SVG 20010904//EN"
 "http://www.w3.org/TR/2001/REC-SVG-20010904/DTD/svg10.dtd">
<svg version="1.0" xmlns="http://www.w3.org/2000/svg"
 width="300.000000pt" height="300.000000pt" viewBox="0 0 300.000000 300.000000"
 preserveAspectRatio="xMidYMid meet">
<metadata>
Created by potrace 1.14, written by Peter Selinger 2001-2017
</metadata>
<g transform="translate(0.000000,300.000000) scale(0.100000,-0.100000)"
fill="#000000" stroke="none">
<path d="M1362 2963 c-61 -30 -77 -65 -80 -183 l-4 -105 -103 -33 c-239 -77
-429 -252 -500 -462 -71 -210 -51 -483 47 -629 96 -143 209 -218 463 -307
l120 -42 3 -87 c3 -86 3 -87 -20 -80 -57 17 -216 99 -277 142 -61 45 -70 48
-127 48 -94 0 -112 -19 -224 -232 -82 -157 -94 -185 -98 -239 -6 -89 14 -125
102 -182 152 -98 384 -193 549 -223 l65 -12 4 -116 c3 -131 17 -164 82 -195
49 -23 283 -23 332 0 64 30 79 65 82 190 l4 111 80 17 c247 53 447 195 539
381 16 33 39 98 50 144 19 74 21 104 16 235 -4 128 -8 162 -30 222 -31 89 -65
145 -131 212 -98 103 -215 169 -420 238 l-131 43 -3 81 c-2 60 0 80 10 80 23
0 140 -59 191 -97 84 -62 196 -55 246 16 10 14 58 98 106 186 75 136 89 168
92 215 3 41 -1 64 -15 90 -44 82 -309 216 -542 273 l-55 13 -5 105 c-6 118
-22 153 -84 183 -49 23 -287 23 -334 -1z m268 -278 c0 -80 4 -145 9 -145 37 0
202 -36 273 -60 84 -28 223 -94 300 -142 l37 -23 -84 -155 c-46 -85 -86 -159
-88 -165 -2 -5 -19 3 -37 18 -69 59 -286 149 -390 163 l-50 7 0 -245 0 -245
58 -13 c100 -22 264 -79 357 -124 162 -79 254 -188 291 -342 22 -93 15 -254
-15 -343 -74 -218 -269 -353 -564 -392 l-97 -12 0 -154 0 -153 -100 0 -100 0
0 155 c0 153 0 155 -22 159 -162 28 -269 52 -343 78 -97 33 -282 123 -329 161
l-28 23 86 172 86 172 47 -36 c51 -39 193 -113 276 -144 67 -25 203 -60 234
-60 l23 0 -2 242 -3 241 -125 38 c-302 91 -435 179 -507 335 -24 52 -28 74
-31 184 -3 95 0 141 13 190 64 245 274 412 588 465 l37 6 0 144 0 145 100 0
100 0 0 -145z"/>
<path d="M1400 2179 c-115 -22 -187 -92 -197 -190 -11 -107 44 -177 180 -228
32 -11 62 -21 67 -21 6 0 10 88 10 225 0 124 -3 225 -7 224 -5 -1 -28 -5 -53
-10z"/>
<path d="M1600 1054 l0 -227 55 7 c169 20 247 98 232 233 -9 80 -68 133 -207
184 l-80 29 0 -226z"/>
</g>
</svg>
